<svg xmlns="http://www.w3.org/2000/svg" viewBox="0 0 96 96" role="img" aria-label="Ritratto chef">
  <defs>
    <linearGradient id="bg" x1="0" x2="1" y1="0" y2="1">
      <stop offset="0" stop-color="#f5f7fb"/>
      <stop offset="1" stop-color="#8ca8b8"/>
    </linearGradient>
    <linearGradient id="coat" x1="0" x2="1" y1="0" y2="1">
      <stop offset="0" stop-color="#ffffff"/>
      <stop offset="1" stop-color="#d8dde2"/>
    </linearGradient>
  </defs>
  <rect width="96" height="96" rx="48" fill="url(#bg)"/>
  <circle cx="48" cy="38" r="17" fill="#6b4b3e"/>
  <path d="M25 82c4-18 15-27 23-27s19 9 23 27" fill="url(#coat)"/>
  <path d="M27 31c2-10 10-17 21-17s19 7 21 17c-6-3-13-4-21-4s-15 1-21 4Z" fill="#f7f9fc"/>
  <circle cx="42" cy="39" r="2" fill="#1f2933"/>
  <circle cx="54" cy="39" r="2" fill="#1f2933"/>
  <path d="M42 48c4 3 8 3 12 0" fill="none" stroke="#1f2933" stroke-width="2" stroke-linecap="round"/>
</svg>
